<svg xmlns="http://www.w3.org/2000/svg" viewBox="0 0 170.31 36.72"><defs><style>.cls-1{fill:#fcfbfd;}</style></defs><g id="Capa_2" data-name="Capa 2"><g id="Capa_1-2" data-name="Capa 1"><path class="cls-1" d="M4.59,7.33h8.54V35.7H32.85l-1.13,6.85H4.59Z" transform="translate(-4.59 -6.58)"/><path class="cls-1" d="M73.61,24.82c0,9.76-6.51,18.48-19.32,18.48-11.94,0-18.76-8.16-18.76-18.44,0-9.69,7.22-18.28,19.16-18.28C67,6.58,73.61,15.21,73.61,24.82Zm-29.07-.07c0,6.66,3.37,11.88,10.24,11.88,7.09,0,9.82-6,9.82-11.71,0-6.24-3-11.66-10.17-11.66C47.58,13.26,44.54,18.82,44.54,24.75Z" transform="translate(-4.59 -6.58)"/><path class="cls-1" d="M115.13,42.55h-6.19a30.12,30.12,0,0,1-.57-3.6c-2.23,2.65-5.25,4.35-11.88,4.35-11.4,0-17.76-7.85-17.76-18.15S85.5,6.58,98.09,6.58c11.31,0,16.18,6.15,17.12,11.27h-8.62c-.69-1.78-2.72-4.81-8.51-4.81-7.21,0-10.34,5.14-10.34,11.68,0,6.92,3.27,12.08,10.45,12.08,6,0,8.67-3.09,8.67-7.29V29H98.28V22.36h16.85Z" transform="translate(-4.59 -6.58)"/><path class="cls-1" d="M131.84,7.33V42.55h-8.55V7.33Z" transform="translate(-4.59 -6.58)"/><path class="cls-1" d="M141.09,42.55V7.33h10.12c9.89,15.1,13.84,20.6,16,24.78h.1c-.35-3.69-.3-10.28-.3-16.08V7.33h7.84V42.55h-9.49c-3.32-5.25-14.59-22.75-16.69-26.77h-.1c.3,4.34.3,9.35.3,15.61V42.55Z" transform="translate(-4.59 -6.58)"/></g></g></svg>