<svg xmlns="http://www.w3.org/2000/svg" viewBox="0 0 276.9 36.72"><defs><style>.cls-1{fill:#fcfbfd;}</style></defs><g id="Capa_2" data-name="Capa 2"><g id="Capa_1-2" data-name="Capa 1"><path class="cls-1" d="M13.09,29V42.55H4.63V7.33H23.81c8.12,0,12.77,4,12.77,10.06a8.24,8.24,0,0,1-6.13,8.33c1.45.57,5.23,2,5.23,8.28v1.76a28.6,28.6,0,0,0,.44,6.79H27.35c-.59-1.55-.66-3.63-.66-7.37V34c0-3.56-1.31-5-6.44-5Zm0-6.41H21.9c4.15,0,6-1.5,6-4.47,0-2.78-1.84-4.36-5.88-4.36H13.09Z" transform="translate(-4.63 -6.58)"/><path class="cls-1" d="M72,27.69H52.34v8H74.19l-1,6.84H43.79V7.33H73.05v6.85H52.34v6.67H72Z" transform="translate(-4.63 -6.58)"/><path class="cls-1" d="M115,42.55h-6.19a30.12,30.12,0,0,1-.57-3.6C106,41.6,103,43.3,96.34,43.3c-11.4,0-17.76-7.85-17.76-18.16S85.35,6.58,97.94,6.58c11.31,0,16.18,6.15,17.12,11.27h-8.62c-.69-1.78-2.72-4.81-8.51-4.81-7.21,0-10.34,5.13-10.34,11.68,0,6.92,3.26,12.08,10.44,12.08,6,0,8.68-3.09,8.68-7.29V29H98.13V22.36H115Z" transform="translate(-4.63 -6.58)"/><path class="cls-1" d="M131.69,7.33V42.55h-8.55V7.33Z" transform="translate(-4.63 -6.58)"/><path class="cls-1" d="M146.23,32c1,3,3.44,5,9.29,5,5.47,0,7-1.67,7-3.94,0-2.43-1.62-3.79-9-5.05C141.31,26,139.09,22,139.09,17.25c0-7,6.77-10.62,15.09-10.62,12.09,0,15.37,6.21,15.77,10.3h-8.56c-.5-1.74-1.67-4.08-7.48-4.08-4.07,0-6.13,1.3-6.13,3.57,0,2,1.45,3.06,8.06,4.25,13.38,2.4,15.47,6.44,15.47,11.55,0,6.1-4.79,11-16.6,11-11,0-16-4.92-17.05-11.26Z" transform="translate(-4.63 -6.58)"/><path class="cls-1" d="M186.42,14.14H174V7.33h33.3v6.81H195V42.55h-8.55Z" transform="translate(-4.63 -6.58)"/><path class="cls-1" d="M241,27.69H221.33v8h21.86l-1,6.84H212.79V7.33h29.26v6.85H221.33v6.67H241Z" transform="translate(-4.63 -6.58)"/><path class="cls-1" d="M258,29V42.55h-8.46V7.33h19.18c8.12,0,12.77,4,12.77,10.06a8.24,8.24,0,0,1-6.13,8.33c1.44.57,5.22,2,5.22,8.28v1.76a28.55,28.55,0,0,0,.45,6.79h-8.78c-.58-1.55-.65-3.63-.65-7.37V34c0-3.56-1.31-5-6.44-5Zm0-6.41h8.81c4.15,0,5.94-1.5,5.94-4.47,0-2.78-1.84-4.36-5.87-4.36H258Z" transform="translate(-4.63 -6.58)"/></g></g></svg>